<?xml version="1.0" encoding="UTF-8"?>
<svg id="Layer_1" xmlns="http://www.w3.org/2000/svg" version="1.1" viewBox="0 0 470 541">
  <!-- Generator: Adobe Illustrator 29.2.1, SVG Export Plug-In . SVG Version: 2.1.0 Build 116)  -->
  <defs>
    <style>
      .st0 {
        fill: #fff;
      }
    </style>
  </defs>
  <path class="st0" d="M451.9,188.2v215.7l-186.8,107.9v-96.3l98.4-56.8c3.1-1.8,5-5.1,5-8.7v-113.6l5-2.9,78.4-45.3Z"/>
  <path class="st0" d="M421.9,136.2l-78.4,45.3-5,2.9-98.4-56.8c-3.1-1.8-6.9-1.8-10,0l-98.4,56.8-5-2.9-78.4-45.3L235.1,28.4l186.8,107.9Z"/>
  <polygon class="st0" points="348.5 247.9 348.5 338.4 270.1 293.2 348.5 247.9"/>
  <polygon class="st0" points="343.5 347.1 265.1 392.4 265.1 301.8 343.5 347.1"/>
  <polygon class="st0" points="318.5 195.9 240.1 241.2 240.1 150.7 318.5 195.9"/>
  <polygon class="st0" points="230.1 150.7 230.1 241.2 151.7 195.9 230.1 150.7"/>
  <path class="st0" d="M205.1,421.2v90.5L18.3,403.9v-215.7l78.4,45.3,5,2.9v113.6c0,3.6,1.9,6.9,5,8.7l98.4,56.8v5.8Z"/>
  <polygon class="st0" points="205.1 301.8 205.1 392.4 126.7 347.1 205.1 301.8"/>
  <polygon class="st0" points="200.1 293.2 121.7 338.4 121.7 247.9 200.1 293.2"/>
</svg>