<?xml version="1.0" encoding="UTF-8"?>
<svg id="Layer_1" data-name="Layer 1" xmlns="http://www.w3.org/2000/svg" viewBox="0 0 339.58 150.71">
  <defs>
    <style>
      .cls-1 {
        fill: #fff;
      }
    </style>
  </defs>
  <path class="cls-1" d="M175.63,56.86h-6.95s-12.6-20.65-12.6-20.65v20.65h-6.18v-29.61h6.63s12.92,21.01,12.92,21.01v-21.01h6.18v29.61Z"/>
  <path class="cls-1" d="M205.34,32.09h-16.45v6.29h15.07v5.14h-15.07v7.61h17.22v5.32h-23.7v-29.61h22.93v5.24Z"/>
  <path class="cls-1" d="M211.62,26.84h6.74v18.18c0,2.03.26,3.52.77,4.46.8,1.66,2.55,2.49,5.23,2.49s4.41-.83,5.21-2.49c.51-.94.77-2.42.77-4.46v-18.18h6.74v18.2c0,3.15-.52,5.6-1.57,7.35-1.95,3.21-5.67,4.82-11.15,4.82s-9.21-1.61-11.18-4.82c-1.05-1.75-1.57-4.2-1.57-7.35v-18.2Z"/>
  <path class="cls-1" d="M263.8,27.61c1.17.47,2.16,1.16,2.97,2.07.67.75,1.2,1.58,1.6,2.49.39.91.59,1.95.59,3.11,0,1.41-.38,2.79-1.14,4.15-.76,1.36-2.02,2.32-3.77,2.88,1.46.55,2.5,1.33,3.11,2.34.61,1.01.91,2.55.91,4.63v1.99c0,1.35.06,2.27.17,2.75.17.76.58,1.33,1.22,1.69v.74h-7.32c-.2-.66-.34-1.19-.43-1.59-.17-.83-.27-1.68-.28-2.55l-.04-2.75c-.03-1.89-.38-3.15-1.05-3.78-.67-.63-1.93-.94-3.78-.94h-6.48v11.61h-6.48v-29.61h15.18c2.17.04,3.84.29,5.01.76ZM250.09,31.99v7.95h7.14c1.42,0,2.48-.16,3.19-.48,1.25-.56,1.88-1.67,1.88-3.33,0-1.79-.61-3-1.82-3.62-.68-.35-1.7-.52-3.07-.52h-7.32Z"/>
  <path class="cls-1" d="M284.38,26.84h7.5l11.23,29.61h-7.19l-2.09-6.09h-11.69l-2.15,6.09h-6.94l11.33-29.61ZM283.94,45.26h8.13l-4.01-11.65-4.12,11.65Z"/>
  <path class="cls-1" d="M149.86,61.17h22.63v5.2h-16.04v6.81h14.06v5.14h-14.06v12.41h-6.59v-29.57Z"/>
  <path class="cls-1" d="M197.13,61.89c1.17.47,2.16,1.16,2.97,2.07.67.75,1.2,1.58,1.6,2.49.39.91.59,1.95.59,3.11,0,1.41-.38,2.79-1.14,4.15-.76,1.36-2.02,2.32-3.77,2.88,1.46.55,2.5,1.33,3.11,2.34.61,1.01.91,2.55.91,4.63v1.99c0,1.35.06,2.27.17,2.75.17.76.58,1.33,1.22,1.69v.74h-7.32c-.2-.66-.34-1.19-.43-1.59-.17-.83-.27-1.68-.28-2.55l-.04-2.75c-.03-1.89-.38-3.15-1.05-3.78-.67-.63-1.93-.94-3.78-.94h-6.48v11.61h-6.48v-29.61h15.18c2.17.04,3.84.29,5.01.76ZM183.43,66.27v7.95h7.14c1.42,0,2.48-.16,3.19-.48,1.25-.56,1.88-1.67,1.88-3.33,0-1.79-.61-3-1.82-3.62-.68-.35-1.7-.52-3.07-.52h-7.32Z"/>
  <path class="cls-1" d="M217.71,61.13h7.5l11.23,29.61h-7.19l-2.09-6.09h-11.69l-2.15,6.09h-6.94l11.33-29.61ZM217.27,79.55h8.13l-4.01-11.65-4.12,11.65Z"/>
  <path class="cls-1" d="M261.53,61.13h9.54v29.61h-6.18v-20.03c0-.58,0-1.38.02-2.42.01-1.04.02-1.84.02-2.4l-6.01,24.85h-6.44l-5.97-24.85c0,.56,0,1.36.02,2.4.01,1.04.02,1.84.02,2.42v20.03h-6.18v-29.61h9.65l5.78,23.28,5.73-23.28Z"/>
  <path class="cls-1" d="M300.32,66.37h-16.45v6.29h15.07v5.14h-15.07v7.61h17.22v5.32h-23.7v-29.61h22.93v5.24Z"/>
  <polygon class="cls-1" points="149.8 95.12 156.43 95.12 156.43 119.4 172.28 119.4 172.28 124.73 149.8 124.73 149.8 95.12"/>
  <path class="cls-1" d="M193.31,95.12h-7.5l-11.33,29.61h6.94l2.15-6.09h11.69l2.09,6.09h7.19l-11.23-29.61ZM185.37,113.54l4.12-11.65,4.01,11.65h-8.13Z"/>
  <path class="cls-1" d="M233.31,111.45c-.82-1.19-2.05-2.06-3.67-2.61,1.07-.51,1.87-1.07,2.42-1.69.98-1.1,1.47-2.55,1.47-4.36s-.49-3.26-1.46-4.52c-1.61-2.05-4.35-3.1-8.22-3.15h-15.33v29.61h14.3c1.61,0,3.11-.13,4.48-.4,1.38-.27,2.57-.76,3.59-1.49.9-.63,1.65-1.41,2.25-2.33.94-1.39,1.41-2.97,1.41-4.72s-.41-3.15-1.24-4.34ZM215.01,100.26h6.9c1.52,0,2.77.15,3.75.46,1.14.44,1.7,1.35,1.7,2.73,0,1.25-.43,2.11-1.29,2.6-.86.49-1.98.73-3.36.73h-7.71v-6.53ZM225.93,119.06c-.77.35-1.84.52-3.21.52h-7.7v-7.89h7.81c1.36.01,2.42.18,3.17.5,1.35.58,2.02,1.63,2.02,3.17,0,1.82-.7,3.05-2.09,3.7Z"/>
  <path class="cls-1" d="M132.1,50.72c0-.33-.03-.66-.1-.99,0,0,0-.01,0-.02-.04-.22-.1-.43-.17-.64,0,0,0,0,0,0-.03-.09-.07-.19-.11-.28,0-.02-.02-.04-.03-.07-.03-.07-.06-.15-.1-.22-.01-.02-.02-.05-.04-.07-.04-.09-.09-.18-.14-.27,0,0,0,0,0-.01-.05-.09-.1-.17-.16-.26-.01-.02-.03-.04-.05-.07-.05-.07-.09-.13-.14-.2-.01-.02-.03-.04-.04-.06-.06-.08-.12-.16-.19-.23,0,0,0,0,0,0-.15-.17-.3-.33-.47-.47,0,0-.01,0-.02-.01-.25-.22-.52-.42-.81-.58,0,0-.01,0-.02-.01l-42.63-24.61c-1.6-.93-3.58-.93-5.18,0l-42.63,24.61s0,0-.01,0c-.29.17-.56.36-.82.59,0,0,0,0,0,0-.24.21-.46.45-.67.71-.01.02-.03.04-.04.05-.05.06-.1.13-.14.2-.01.02-.03.04-.04.07-.06.08-.11.17-.16.26,0,0,0,0,0,.01-.05.09-.1.18-.14.27-.01.02-.02.05-.04.07-.04.07-.07.15-.1.22,0,.02-.02.04-.03.07-.04.09-.07.19-.11.28,0,0,0,0,0,0-.07.21-.13.43-.17.64,0,0,0,.01,0,.02-.07.33-.1.66-.1.99,0,0,0,.01,0,.02v49.23c0,1.85.99,3.56,2.59,4.49l42.63,24.61s.01,0,.02,0c.29.16.59.3.91.41,0,0,.01,0,.02,0,.21.07.42.13.64.17,0,0,0,0,0,0,.1.02.2.04.3.05.02,0,.05,0,.07,0,.08,0,.16.02.24.02.03,0,.05,0,.08,0,.1,0,.21.01.31.01s.21,0,.31-.01c.03,0,.05,0,.08,0,.08,0,.16-.01.24-.02.02,0,.05,0,.07,0,.1-.01.2-.03.3-.05,0,0,0,0,0,0,.22-.04.44-.1.64-.17,0,0,.01,0,.02,0,.32-.11.62-.25.91-.41,0,0,.01,0,.02,0l42.63-24.61c1.6-.93,2.59-2.64,2.59-4.49v-49.23s0-.01,0-.02ZM84.29,32.11l32.27,18.63-13.54,7.82-.86.5-17-9.81c-.53-.31-1.19-.31-1.73,0l-17,9.81-.86-.5-13.54-7.82,32.27-18.63ZM85.15,68.87v-15.64l13.54,7.82-13.54,7.82ZM83.42,68.87l-13.54-7.82,13.54-7.82v15.64ZM78.24,77.85l-13.54,7.82v-15.64l13.54,7.82ZM79.11,79.34v15.64l-13.54-7.82,13.54-7.82ZM89.47,79.34l13.54,7.82-13.54,7.82v-15.64ZM103.88,85.67l-13.54-7.82,13.54-7.82v15.64ZM46.84,59.72l13.54,7.82.86.5v19.63c0,.62.33,1.19.86,1.5l17,9.81v16.64l-32.27-18.63v-37.26ZM89.47,115.61v-16.64l17-9.81c.53-.31.86-.88.86-1.5v-19.63l.86-.5,13.54-7.82v37.26l-32.27,18.63Z"/>
</svg>